<?xml version="1.0" encoding="utf-8"?>
<!-- Generator: Adobe Illustrator 26.0.0, SVG Export Plug-In . SVG Version: 6.00 Build 0)  -->
<svg version="1.1" id="圖層_1" xmlns="http://www.w3.org/2000/svg" xmlns:xlink="http://www.w3.org/1999/xlink" x="0px" y="0px"
	 viewBox="0 0 24 24" style="enable-background:new 0 0 24 24;" xml:space="preserve">
<style type="text/css">
	.st0{fill:#FFFFFF;}
</style>
<path class="st0" d="M5,21c-0.5,0-1-0.2-1.4-0.6C3.2,20,3,19.6,3,19V6.5C3,6.2,3,6,3.1,5.8c0.1-0.2,0.2-0.4,0.3-0.6l1.4-1.7
	C5,3.4,5.1,3.2,5.3,3.1C5.5,3,5.8,3,6,3h12c0.2,0,0.4,0,0.6,0.1c0.2,0.1,0.4,0.2,0.5,0.4l1.4,1.7c0.1,0.2,0.2,0.4,0.3,0.6
	C21,6,21,6.2,21,6.5V19c0,0.6-0.2,1-0.6,1.4C20,20.8,19.6,21,19,21H5z M5.4,6h13.2l-0.9-1H6.2L5.4,6z M5,8v11h14V8H5z M12,18l4-4
	l-1.4-1.4L13,14.2V10h-2v4.2l-1.6-1.6L8,14L12,18z M5,19h14H5z"/>
</svg>
