<?xml version="1.0" encoding="utf-8"?>
<!-- Generator: Adobe Illustrator 26.0.0, SVG Export Plug-In . SVG Version: 6.00 Build 0)  -->
<svg version="1.1" id="圖層_1" xmlns="http://www.w3.org/2000/svg" xmlns:xlink="http://www.w3.org/1999/xlink" x="0px" y="0px"
	 viewBox="0 0 24 24" style="enable-background:new 0 0 24 24;" xml:space="preserve">
<style type="text/css">
	.st0{fill:#0078D7;}
</style>
<path class="st0" d="M6.7,15.1c-0.3-0.5-0.5-1-0.6-1.5c-0.1-0.5-0.2-1-0.2-1.6c0-1.7,0.6-3.2,1.8-4.4s2.7-1.8,4.4-1.8h0.1l-1.2-1.2
	L12,3.5l3.1,3.1L12,9.7l-1.1-1.1l1.2-1.2H12c-1.3,0-2.4,0.5-3.3,1.4c-0.9,0.9-1.4,2-1.4,3.3c0,0.3,0,0.7,0.1,1
	c0.1,0.3,0.2,0.6,0.3,0.9L6.7,15.1z M12,20.5l-3.1-3.1l3.1-3.1l1.1,1.1l-1.2,1.2H12c1.3,0,2.4-0.5,3.3-1.4c0.9-0.9,1.4-2,1.4-3.3
	c0-0.3,0-0.7-0.1-1c-0.1-0.3-0.2-0.6-0.3-0.9l1.2-1.2c0.3,0.5,0.5,1,0.6,1.5s0.2,1,0.2,1.6c0,1.7-0.6,3.2-1.8,4.4
	c-1.2,1.2-2.7,1.8-4.4,1.8h-0.1l1.2,1.2L12,20.5z"/>
</svg>
