<?xml version="1.0" encoding="utf-8"?>
<!-- Generator: Adobe Illustrator 25.0.0, SVG Export Plug-In . SVG Version: 6.00 Build 0)  -->
<svg version="1.1" id="圖層_1" xmlns="http://www.w3.org/2000/svg" xmlns:xlink="http://www.w3.org/1999/xlink" x="0px" y="0px"
	width="24" height="24" style="enable-background:new 0 0 24 24;" xml:space="preserve">
<style type="text/css">
	.st0{fill:#32CD32;}
</style>
<path class="st0" d="M5,21h14c1.1,0,2-0.9,2-2V8c0-0.3-0.1-0.5-0.3-0.7l-4-4C16.5,3.1,16.3,3,16,3H5C3.9,3,3,3.9,3,5v14
	C3,20.1,3.9,21,5,21z M13,7h-2V5h2V7z M7,19H5V5h2v4h8V5h0.6L19,8.4V19h-2H7z"/>
<path class="st0" d="M10.7,15l-2.3-2.3L7,14.1l3.7,3.7l6.7-6.7L16,9.7L10.7,15z"/>
</svg>
