<?xml version="1.0" encoding="utf-8"?>
<!-- Generator: Adobe Illustrator 26.0.0, SVG Export Plug-In . SVG Version: 6.00 Build 0)  -->
<svg version="1.1" id="Capa_1" xmlns="http://www.w3.org/2000/svg" xmlns:xlink="http://www.w3.org/1999/xlink" x="0px" y="0px"
	 viewBox="0 0 60 60" style="enable-background:new 0 0 60 60;" xml:space="preserve">
<style type="text/css">
	.st0{fill:#61A3D9;}
</style>
<g>
	<path class="st0" d="M8.2,49.8c-0.4-0.4-1-0.4-1.4,0l-2.5,2.5c-0.9,0.9-1.3,2-1.3,3.2c0,1.2,0.5,2.4,1.3,3.2s2,1.3,3.2,1.3
		c1.2,0,2.4-0.5,3.2-1.3c1.8-1.8,1.8-4.6,0-6.4L8.2,49.8z"/>
	<path class="st0" d="M55.2,10.4c2.2-2.2,2.5-5.8,0.6-8.2C54.6,0.8,52.9,0,51.1,0c-1.6,0-3.1,0.6-4.2,1.8l-3.5,3.5
		c-1.1,1.1-3.1,1.1-4.2,0l-0.6-0.6c-0.8-0.8-2.3-0.8-3.1,0l-3.9,3.9c-0.4,0.4-0.6,1-0.6,1.6c0,0.6,0.2,1.1,0.6,1.6l2,2L18.2,29l-1,1
		c-1.6,1.6-2.7,3.5-3.4,5.7c-0.3,0.8-0.6,1.7-1.1,2.4c0,0,0,0.1-0.1,0.1c0,0-0.1,0.1-0.1,0.1c-0.2,0.4-0.5,0.7-0.7,1.1
		c-0.3,0.4-0.6,0.7-0.9,1.1l-4.4,4.4l5.7,5.7l4.4-4.4c1.4-1.4,3-2.4,4.9-2.9c1.3-0.4,2.5-1,3.6-1.7c0.7-0.5,1.5-1,2.1-1.7L38,29l0,0
		l5.4-5.4l2,2c0.4,0.4,1,0.6,1.6,0.6s1.1-0.2,1.6-0.6l3.9-3.9c0.9-0.9,0.9-2.3,0-3.1L51.8,18c-0.6-0.6-0.9-1.3-0.9-2.1
		s0.3-1.5,0.9-2.1L55.2,10.4z M35.2,29H21l13.9-13.9l7.1,7.1L35.2,29z"/>
</g>
</svg>
