<?xml version="1.0" encoding="utf-8"?>
<!-- Generator: Adobe Illustrator 26.0.0, SVG Export Plug-In . SVG Version: 6.00 Build 0)  -->
<svg version="1.1" id="圖層_1" xmlns="http://www.w3.org/2000/svg" xmlns:xlink="http://www.w3.org/1999/xlink" x="0px" y="0px"
	 viewBox="0 0 24 24" style="enable-background:new 0 0 24 24;" xml:space="preserve">
<style type="text/css">
	.st0{fill:#ED143D;}
</style>
<path class="st0" d="M4.5,17.5V4.9l11.3,4.7h-0.2c-0.5,0-0.9,0.1-1.3,0.2c-0.4,0.1-0.8,0.2-1.2,0.4l-7-3V10l4.7,1.2l-4.7,1.2v2.8
	l4.3-1.8c-0.1,0.3-0.2,0.6-0.2,0.9c-0.1,0.3-0.1,0.6-0.1,0.9v0L4.5,17.5z M15.6,19.1c-1.1,0-2-0.4-2.8-1.2c-0.8-0.8-1.2-1.7-1.2-2.8
	s0.4-2,1.2-2.8c0.8-0.8,1.7-1.2,2.8-1.2s2,0.4,2.8,1.2c0.8,0.8,1.2,1.7,1.2,2.8s-0.4,2-1.2,2.8C17.6,18.7,16.6,19.1,15.6,19.1z
	 M6.1,13.3V7.3v7.9V13.3z M14.2,17.1l1.4-1.4l1.4,1.4l0.6-0.6l-1.4-1.4l1.4-1.4l-0.6-0.6l-1.4,1.4l-1.4-1.4l-0.6,0.6l1.4,1.4
	l-1.4,1.4L14.2,17.1z"/>
</svg>
