<?xml version="1.0" encoding="utf-8"?>
<!-- Generator: Adobe Illustrator 26.0.0, SVG Export Plug-In . SVG Version: 6.00 Build 0)  -->
<svg version="1.1" id="圖層_1" xmlns="http://www.w3.org/2000/svg" xmlns:xlink="http://www.w3.org/1999/xlink" x="0px" y="0px"
	 viewBox="0 0 24 24" style="enable-background:new 0 0 24 24;" xml:space="preserve">
<path d="M9,15V9h6v6H9z M11,13h2v-2h-2V13z M9,21v-2H7c-0.5,0-1-0.2-1.4-0.6C5.2,18,5,17.6,5,17v-2H3v-2h2v-2H3V9h2V7
	c0-0.5,0.2-1,0.6-1.4C6,5.2,6.5,5,7,5h2V3h2v2h2V3h2v2h2c0.6,0,1,0.2,1.4,0.6C18.8,6,19,6.5,19,7v2h2v2h-2v2h2v2h-2v2
	c0,0.6-0.2,1-0.6,1.4C18,18.8,17.6,19,17,19h-2v2h-2v-2h-2v2H9z M17,17V7H7v10H17z"/>
</svg>
