<?xml version="1.0" encoding="utf-8"?>
<!-- Generator: Adobe Illustrator 26.0.0, SVG Export Plug-In . SVG Version: 6.00 Build 0)  -->
<svg version="1.1" id="圖層_1" xmlns="http://www.w3.org/2000/svg" xmlns:xlink="http://www.w3.org/1999/xlink" x="0px" y="0px"
	 viewBox="0 0 24 24" style="enable-background:new 0 0 24 24;" xml:space="preserve">
<style type="text/css">
	.st0{fill:#FF4500;}
</style>
<path class="st0" d="M7,21.5c-0.5,0-1-0.2-1.4-0.6C5.2,20.5,5,20.1,5,19.5v-13H4v-2h5v-2h6v2h5v2h-1v13c0,0.6-0.2,1-0.6,1.4
	c-0.4,0.4-0.9,0.6-1.4,0.6H7z M17,6.5H7v13h10V6.5z M9,17.5h2v-9H9V17.5z M13,17.5h2v-9h-2V17.5z M7,6.5v13V6.5z"/>
</svg>
