<?xml version="1.0" encoding="utf-8"?>
<!-- Generator: Adobe Illustrator 26.0.0, SVG Export Plug-In . SVG Version: 6.00 Build 0)  -->
<svg version="1.1" xmlns="http://www.w3.org/2000/svg" xmlns:xlink="http://www.w3.org/1999/xlink" x="0px" y="0px"
	 viewBox="0 0 24 24" style="enable-background:new 0 0 24 24;" xml:space="preserve">
<style type="text/css">
	.st0{fill:#FFFFFF;}
</style>
<g id="圖層_1">
</g>
<g id="圖層_2">
	<polyline class="st0" points="5.7,19.7 6.9,20.6 18.3,4.3 17.1,3.4 	"/>
	<polyline class="st0" points="18.3,19.7 17.1,20.6 5.7,4.3 6.9,3.4 	"/>
	<path class="st0" d="M10.6,7.2c0,0,0.8-0.5,1.5-0.3c0.7,0.3,1.5,0,1.5,0L12,9.2L10.6,7.2z"/>
	<path class="st0" d="M10.3,17.3c0,0,1.7-2.8,3.5,0l0.8,1h-5L10.3,17.3z"/>
	<path class="st0" d="M19,19"/>
	<path class="st0" d="M18.6,5H5.4C5.2,5,5,4.8,5,4.6V3.4C5,3.2,5.2,3,5.4,3h13.2C18.8,3,19,3.2,19,3.4v1.2C19,4.8,18.8,5,18.6,5z"/>
	<path class="st0" d="M18.6,21H5.4C5.2,21,5,20.8,5,20.6v-1.2C5,19.2,5.2,19,5.4,19h13.2c0.2,0,0.4,0.2,0.4,0.4v1.2
		C19,20.8,18.8,21,18.6,21z"/>
</g>
</svg>
