<?xml version="1.0" encoding="utf-8"?>
<!-- Generator: Adobe Illustrator 26.0.0, SVG Export Plug-In . SVG Version: 6.00 Build 0)  -->
<svg version="1.1" id="圖層_1" xmlns="http://www.w3.org/2000/svg" xmlns:xlink="http://www.w3.org/1999/xlink" x="0px" y="0px"
	 viewBox="0 0 24 24" style="enable-background:new 0 0 24 24;" xml:space="preserve">
<style type="text/css">
	.st0{fill:#FFFFFF;}
</style>
<path class="st0" d="M2,19v-2h10v2H2z M2,14v-2h5v2H2z M2,9V7h5v2H2z M20.6,19l-3.9-3.9c-0.4,0.3-0.8,0.5-1.3,0.6
	C15,15.9,14.5,16,14,16c-1.4,0-2.6-0.5-3.5-1.5c-1-1-1.5-2.2-1.5-3.5s0.5-2.6,1.5-3.5c1-1,2.2-1.5,3.5-1.5s2.6,0.5,3.5,1.5
	c1,1,1.5,2.2,1.5,3.5c0,0.5-0.1,1-0.2,1.4c-0.1,0.5-0.4,0.9-0.6,1.3l3.9,3.9L20.6,19z M14,14c0.8,0,1.5-0.3,2.1-0.9
	c0.6-0.6,0.9-1.3,0.9-2.1s-0.3-1.5-0.9-2.1C15.5,8.3,14.8,8,14,8s-1.5,0.3-2.1,0.9S11,10.2,11,11s0.3,1.5,0.9,2.1S13.2,14,14,14z"/>
</svg>
