<?xml version="1.0" encoding="utf-8"?>
<!-- Generator: Adobe Illustrator 26.0.0, SVG Export Plug-In . SVG Version: 6.00 Build 0)  -->
<svg version="1.1" id="圖層_1" xmlns="http://www.w3.org/2000/svg" xmlns:xlink="http://www.w3.org/1999/xlink" x="0px" y="0px"
	 viewBox="0 0 24 24" style="enable-background:new 0 0 24 24;" xml:space="preserve">
<style type="text/css">
	.st0{fill:#62FF00;}
</style>
<path class="st0" d="M15,19.4l-3-3l1-1l2,2l4-4l1,1L15,19.4z M12.1,11.6L17.9,8H6.4L12.1,11.6z M12.1,13L6.4,9.4v7.1h3.7l1.4,1.4
	H6.4c-0.4,0-0.7-0.1-1-0.4C5.1,17.3,5,17,5,16.6V8c0-0.4,0.1-0.7,0.4-1c0.3-0.3,0.6-0.4,1-0.4h11.4c0.4,0,0.7,0.1,1,0.4
	c0.3,0.3,0.4,0.6,0.4,1v3.1l-1.4,1.4V9.4L12.1,13z"/>
</svg>
