<?xml version="1.0" encoding="utf-8"?>
<!-- Generator: Adobe Illustrator 26.0.0, SVG Export Plug-In . SVG Version: 6.00 Build 0)  -->
<svg version="1.1" id="圖層_1" xmlns="http://www.w3.org/2000/svg" xmlns:xlink="http://www.w3.org/1999/xlink" x="0px" y="0px"
	 viewBox="0 0 24 24" style="enable-background:new 0 0 24 24;" xml:space="preserve">
<style type="text/css">
	.st0{fill:#62FF00;}
</style>
<path class="st0" d="M11.2,13.8V5.5h1.7v8.3H11.2z M12,20.5c-1,0-2-0.2-2.9-0.6c-0.9-0.4-1.7-0.9-2.4-1.6c-0.7-0.7-1.2-1.5-1.6-2.4
	C4.7,15,4.5,14,4.5,13c0-1.1,0.2-2.2,0.7-3.1S6.3,8,7.1,7.3l1.2,1.2c-0.7,0.6-1.2,1.2-1.6,2c-0.4,0.8-0.6,1.6-0.6,2.5
	c0,1.6,0.6,3,1.7,4.1s2.5,1.7,4.1,1.7c1.6,0,3-0.6,4.1-1.7c1.1-1.1,1.7-2.5,1.7-4.1c0-0.9-0.2-1.7-0.6-2.5c-0.4-0.8-0.9-1.5-1.6-2
	l1.2-1.2c0.8,0.7,1.5,1.6,1.9,2.6c0.5,1,0.7,2,0.7,3.1c0,1-0.2,2-0.6,2.9c-0.4,0.9-0.9,1.7-1.6,2.4c-0.7,0.7-1.5,1.2-2.4,1.6
	C14,20.3,13,20.5,12,20.5z"/>
</svg>
