<?xml version="1.0" encoding="utf-8"?>
<!-- Generator: Adobe Illustrator 26.0.0, SVG Export Plug-In . SVG Version: 6.00 Build 0)  -->
<svg version="1.1" id="圖層_1" xmlns="http://www.w3.org/2000/svg" xmlns:xlink="http://www.w3.org/1999/xlink" x="0px" y="0px"
	 viewBox="0 0 24 24" style="enable-background:new 0 0 24 24;" xml:space="preserve">
<style type="text/css">
	.st0{fill:#ED143D;}
</style>
<path class="st0" d="M12,17.2c0.2,0,0.4-0.1,0.6-0.2c0.2-0.2,0.2-0.4,0.2-0.6s-0.1-0.4-0.2-0.6c-0.2-0.2-0.4-0.2-0.6-0.2
	s-0.4,0.1-0.6,0.2c-0.2,0.2-0.2,0.4-0.2,0.6s0.1,0.4,0.2,0.6C11.6,17.1,11.8,17.2,12,17.2z M11.2,13.8h1.7v-5h-1.7V13.8z M8.9,20.5
	l-4.4-4.4V9.9l4.4-4.4h6.2l4.4,4.4v6.2l-4.4,4.4H8.9z M9.6,18.8h4.8l3.4-3.4v-4.8l-3.4-3.4H9.6l-3.4,3.4v4.8L9.6,18.8z"/>
</svg>
