<?xml version="1.0" encoding="utf-8"?>
<!-- Generator: Adobe Illustrator 26.0.0, SVG Export Plug-In . SVG Version: 6.00 Build 0)  -->
<svg version="1.1" id="圖層_1" xmlns="http://www.w3.org/2000/svg" xmlns:xlink="http://www.w3.org/1999/xlink" x="0px" y="0px"
	 viewBox="0 0 24 24" style="enable-background:new 0 0 24 24;" xml:space="preserve">
<style type="text/css">
	.st0{fill:#62FF00;}
</style>
<path class="st0" d="M10.2,6.8V5.6h3.7v1.2H10.2z M11.4,13.5h1.2V9.9h-1.2V13.5z M12,18.4c-0.8,0-1.5-0.1-2.1-0.4
	c-0.7-0.3-1.2-0.7-1.7-1.2c-0.5-0.5-0.9-1.1-1.2-1.7c-0.3-0.7-0.4-1.4-0.4-2.1c0-0.8,0.1-1.5,0.4-2.1C7.2,10.1,7.6,9.5,8.1,9
	s1.1-0.9,1.7-1.2c0.7-0.3,1.4-0.4,2.1-0.4c0.6,0,1.2,0.1,1.8,0.3c0.6,0.2,1.1,0.5,1.6,0.9l0.9-0.9l0.9,0.9l-0.9,0.9
	c0.4,0.5,0.7,1.1,0.9,1.6c0.2,0.6,0.3,1.2,0.3,1.8c0,0.8-0.1,1.5-0.4,2.1c-0.3,0.7-0.7,1.2-1.2,1.7c-0.5,0.5-1.1,0.9-1.7,1.2
	C13.5,18.3,12.8,18.4,12,18.4z M12,17.2c1.2,0,2.2-0.4,3-1.3c0.8-0.8,1.3-1.8,1.3-3s-0.4-2.2-1.3-3c-0.8-0.8-1.8-1.3-3-1.3
	S9.8,9.1,9,9.9c-0.8,0.8-1.3,1.8-1.3,3s0.4,2.2,1.3,3C9.8,16.8,10.8,17.2,12,17.2z"/>
</svg>
