<?xml version="1.0" encoding="utf-8"?>
<!-- Generator: Adobe Illustrator 26.0.0, SVG Export Plug-In . SVG Version: 6.00 Build 0)  -->
<svg version="1.1" id="圖層_1" xmlns="http://www.w3.org/2000/svg" xmlns:xlink="http://www.w3.org/1999/xlink" x="0px" y="0px"
	 viewBox="0 0 24 24" style="enable-background:new 0 0 24 24;" xml:space="preserve">
<style type="text/css">
	.st0{fill:#62FF00;}
</style>
<path class="st0" d="M6.4,17.1V9.3V17.1z M6.4,18.6c-0.4,0-0.7-0.1-1-0.4c-0.3-0.3-0.4-0.6-0.4-1V9.3c0-0.4,0.1-0.7,0.4-1
	C5.7,8,6,7.9,6.4,7.9h2.9V6.4c0-0.4,0.1-0.7,0.4-1C10,5.1,10.3,5,10.7,5h2.9c0.4,0,0.7,0.1,1,0.4C14.9,5.7,15,6,15,6.4v1.4h2.9
	c0.4,0,0.7,0.1,1,0.4c0.3,0.3,0.4,0.6,0.4,1v3.1c-0.2-0.2-0.4-0.3-0.7-0.4c-0.2-0.1-0.5-0.2-0.7-0.3V9.3H6.4v7.9h5.1
	c0,0.2,0.1,0.5,0.2,0.7c0.1,0.2,0.2,0.5,0.3,0.7H6.4z M10.7,7.9h2.9V6.4h-2.9V7.9z M16.4,20c-1,0-1.8-0.3-2.5-1
	c-0.7-0.7-1-1.5-1-2.5s0.3-1.8,1-2.5c0.7-0.7,1.5-1,2.5-1s1.8,0.3,2.5,1c0.7,0.7,1,1.5,1,2.5s-0.3,1.8-1,2.5
	C18.3,19.7,17.4,20,16.4,20z M17.6,18.1l0.5-0.5l-1.3-1.3v-2h-0.7v2.3L17.6,18.1z"/>
</svg>
